<?xml version="1.0" standalone="no"?>
<!DOCTYPE svg PUBLIC "-//W3C//DTD SVG 20010904//EN"
 "http://www.w3.org/TR/2001/REC-SVG-20010904/DTD/svg10.dtd">
<svg version="1.0" xmlns="http://www.w3.org/2000/svg"
 width="1000.000000pt" height="666.000000pt" viewBox="0 0 1000.000000 666.000000"
 preserveAspectRatio="xMidYMid meet">

<g transform="translate(0.000000,666.000000) scale(0.100000,-0.100000)"
fill="#000000" stroke="none">
<path d="M3721 6632 c-933 -2 -1187 -5 -1193 -15 -11 -17 -10 -4664 1 -4671
12 -8 2098 -8 2136 0 37 7 45 14 16 14 -48 0 -343 133 -406 184 -22 17 -51 39
-65 48 -73 47 -258 255 -298 335 -89 176 -109 229 -131 348 -35 195 -34 287 5
485 54 271 273 577 515 715 35 21 85 51 110 67 26 15 68 35 95 42 27 8 94 28
149 44 87 25 249 54 310 55 246 3 995 -5 995 -11 0 -10 -36 -25 -160 -65 -58
-19 -134 -52 -170 -73 -36 -20 -86 -49 -112 -63 -101 -57 -291 -246 -340 -338
-11 -21 -28 -49 -37 -63 -52 -75 -90 -177 -130 -342 -29 -118 -29 -311 -1
-435 29 -130 59 -221 92 -283 89 -169 128 -223 247 -338 139 -135 301 -229
526 -305 l90 -30 265 0 265 0 95 32 c128 44 293 123 355 170 27 21 58 42 67
47 58 31 249 246 291 328 11 22 28 52 37 66 24 36 77 161 84 196 3 16 12 63
21 104 18 89 20 307 4 412 -23 151 -82 300 -176 448 -128 200 -372 386 -608
464 -121 40 -155 55 -155 68 0 4 212 9 472 10 l472 3 -3 1170 c-1 644 -4 1171
-5 1172 -4 4 -2546 8 -3725 5z"/>
<path d="M260 1246 c-69 -14 -119 -44 -127 -75 -8 -32 5 -50 60 -86 76 -49 86
-97 87 -395 0 -132 -5 -242 -11 -265 -11 -42 -44 -85 -64 -85 -19 0 -45 -35
-45 -61 1 -68 72 -99 231 -99 110 0 154 9 202 42 41 29 38 79 -7 107 -19 12
-41 32 -49 44 -17 27 -39 181 -31 217 19 81 25 90 55 90 39 0 64 -14 118 -67
25 -23 49 -43 53 -43 5 0 28 -19 52 -43 24 -24 58 -54 77 -67 19 -13 39 -31
46 -40 6 -9 38 -36 70 -61 32 -24 78 -63 103 -86 72 -68 111 -93 145 -93 80 0
95 79 95 501 0 262 3 323 15 353 9 20 23 40 33 43 49 18 72 44 72 82 0 49 -22
69 -97 86 -104 25 -256 12 -316 -28 -21 -13 -27 -26 -27 -52 0 -30 6 -40 49
-70 54 -39 61 -58 61 -173 0 -76 -12 -102 -46 -102 -26 0 -98 44 -125 76 -7 9
-36 34 -64 54 -27 21 -69 56 -93 79 -24 22 -47 41 -52 41 -6 0 -25 15 -43 34
-55 57 -163 134 -203 145 -48 13 -151 12 -224 -3z"/>
<path d="M4275 1229 c-57 -47 -76 -72 -102 -136 -56 -139 -2 -261 98 -219 32
13 115 94 149 144 10 15 25 22 47 22 27 0 35 -6 49 -36 18 -37 17 -79 -6 -434
-12 -187 -15 -196 -95 -230 -25 -11 -48 -26 -51 -35 -18 -45 34 -95 116 -110
58 -12 413 -12 465 -1 60 13 105 50 105 88 0 32 -22 57 -52 58 -10 0 -33 16
-53 35 l-35 36 0 303 c0 335 -1 330 62 324 27 -2 38 -12 65 -53 43 -69 79
-103 123 -116 31 -10 42 -8 77 10 49 24 53 34 53 122 0 89 -24 141 -96 209
-54 51 -55 52 -102 45 -63 -10 -663 -11 -727 -1 -47 7 -53 5 -90 -25z"/>
<path d="M5688 1235 c-2 -3 -31 -9 -64 -14 -167 -28 -225 -45 -264 -77 -42
-36 -40 -68 8 -98 57 -35 62 -65 62 -332 -1 -274 -13 -356 -56 -391 -16 -13
-32 -23 -36 -23 -14 0 -9 -67 6 -79 48 -40 315 -57 416 -27 57 17 83 54 60 88
-47 74 -50 88 -50 229 0 152 11 197 55 217 42 19 69 14 107 -20 43 -39 58 -92
58 -203 0 -86 -15 -158 -40 -195 -67 -97 -15 -130 205 -130 128 0 209 14 241
41 24 20 15 50 -26 95 l-40 44 0 137 c-1 164 -19 310 -45 350 -50 76 -96 97
-223 97 l-102 0 -63 -62 c-36 -36 -71 -62 -83 -62 -41 0 -47 33 -35 213 13
193 9 207 -50 207 -19 0 -38 -2 -41 -5z"/>
<path d="M6665 1228 c-16 -5 -46 -14 -65 -20 -91 -26 -130 -58 -130 -108 0
-32 28 -63 75 -86 82 -39 314 26 351 98 20 38 5 80 -34 98 -15 7 -35 16 -44
21 -23 12 -114 10 -153 -3z"/>
<path d="M2816 1100 c-33 -22 -64 -40 -69 -40 -5 0 -31 -15 -56 -34 -26 -18
-69 -46 -97 -61 -27 -15 -64 -38 -82 -52 -29 -22 -33 -29 -30 -66 l3 -42 65
-3 c36 -2 68 -8 72 -15 4 -7 8 -105 8 -218 l0 -206 30 -59 c48 -97 102 -124
249 -124 133 0 223 31 284 99 43 48 50 96 17 126 -16 15 -25 16 -43 7 -12 -6
-39 -16 -59 -22 -33 -10 -41 -9 -68 10 -17 12 -33 36 -40 58 -13 48 -13 298 0
323 9 17 22 19 105 19 72 0 97 4 109 16 19 19 22 107 4 122 -7 5 -57 12 -110
14 -53 1 -100 7 -105 11 -4 5 -10 45 -13 90 l-5 82 -55 2 c-49 2 -61 -2 -114
-37z"/>
<path d="M8990 964 c-30 -15 -64 -31 -76 -36 -12 -5 -55 -7 -100 -3 -43 3
-136 8 -207 11 -114 5 -134 3 -190 -17 -72 -25 -164 -90 -195 -136 -17 -26
-22 -48 -22 -102 0 -66 2 -72 42 -123 23 -29 45 -54 50 -56 20 -9 4 -33 -37
-58 -25 -14 -52 -39 -60 -55 -28 -53 -14 -120 34 -163 21 -19 28 -46 12 -46
-4 0 -20 -12 -35 -26 -20 -21 -26 -36 -26 -71 0 -84 -2 -83 193 -83 115 0 167
4 157 10 -8 5 -24 10 -35 10 -11 0 -37 14 -58 31 -29 24 -37 37 -35 58 l3 26
155 1 c118 2 160 -1 178 -12 55 -35 1 -104 -82 -104 -19 0 -38 -4 -41 -10 -4
-7 59 -10 181 -10 l187 0 35 38 c46 50 62 91 62 156 0 106 -38 145 -173 176
-47 11 -68 11 -103 2 -24 -7 -61 -12 -82 -12 -21 0 -65 -5 -97 -11 -86 -16
-175 16 -175 61 0 31 23 37 156 43 131 6 144 9 239 53 94 43 155 130 155 221
0 34 7 54 29 82 15 20 33 46 40 58 16 31 14 89 -5 107 -19 19 -9 21 -74 -10z
m-336 -139 c28 -21 46 -81 46 -153 0 -74 -10 -96 -50 -117 -41 -21 -55 -19
-92 14 -50 43 -75 159 -47 214 27 53 100 74 143 42z"/>
<path d="M1905 941 c-97 -12 -205 -66 -284 -143 -90 -87 -124 -252 -81 -384
19 -59 31 -78 86 -130 42 -40 77 -65 106 -73 24 -7 53 -17 66 -22 13 -5 74 -9
137 -9 180 0 270 31 387 134 61 53 77 73 97 125 19 51 22 75 19 139 -6 110
-36 178 -106 247 -83 82 -154 112 -272 118 -52 3 -122 2 -155 -2z m110 -193
c33 -39 41 -59 60 -151 22 -107 20 -198 -5 -225 -57 -61 -148 8 -175 133 -43
200 -29 275 55 275 31 0 43 -6 65 -32z"/>
<path d="M3640 944 c-63 -6 -175 -64 -236 -122 -71 -67 -108 -147 -113 -240
-6 -120 18 -188 93 -272 93 -104 168 -133 329 -127 133 5 153 9 235 50 105 51
148 126 106 185 -20 29 -31 28 -96 -7 -67 -35 -112 -44 -178 -35 -41 5 -60 15
-100 51 -41 37 -50 51 -50 79 l0 34 211 0 211 0 29 29 c32 32 38 78 18 128
-37 90 -53 115 -96 151 -83 72 -127 90 -228 95 -49 2 -110 3 -135 1z m149
-148 c17 -18 22 -33 19 -67 l-3 -44 -87 -3 c-80 -3 -87 -1 -93 18 -9 29 2 71
27 98 31 32 106 31 137 -2z"/>
<path d="M7725 942 c-58 -4 -99 -27 -141 -77 -52 -64 -94 -58 -94 15 0 20 -5
41 -12 48 -14 14 -117 16 -150 3 -13 -5 -43 -14 -68 -21 -25 -7 -64 -21 -87
-31 -24 -11 -46 -19 -49 -19 -4 0 -22 -11 -39 -25 -41 -31 -37 -59 16 -111
l39 -38 0 -148 c0 -163 -9 -202 -54 -231 -44 -29 -27 -100 28 -112 59 -14 299
-17 346 -4 48 13 90 44 90 66 0 7 -13 39 -30 70 -29 54 -30 60 -30 188 0 121
2 135 23 166 22 32 26 34 81 34 53 0 61 -3 80 -28 42 -57 32 -343 -14 -392
-32 -34 -24 -76 20 -97 28 -14 64 -17 185 -17 238 -1 302 37 226 133 -34 42
-38 65 -45 246 -9 221 -36 293 -135 359 -26 17 -117 28 -186 23z"/>
<path d="M9385 943 c-78 -9 -171 -88 -194 -166 -12 -44 -11 -77 5 -155 8 -43
99 -125 179 -162 86 -41 107 -61 103 -102 -3 -29 -7 -33 -37 -36 -57 -6 -82 7
-141 68 -67 70 -104 84 -133 49 -15 -19 -18 -33 -13 -67 9 -64 61 -168 88
-177 41 -12 425 -18 432 -6 4 6 14 11 22 11 25 0 92 50 117 89 43 65 52 110
33 166 -10 27 -24 60 -32 75 -18 29 -104 88 -201 137 -85 42 -93 50 -93 89 0
25 7 38 26 50 24 16 27 16 57 -1 18 -10 53 -38 78 -62 40 -38 52 -45 92 -46
27 -1 51 3 59 11 21 21 14 92 -14 147 -44 85 -42 85 -234 88 -93 2 -182 1
-199 0z"/>
<path d="M6730 930 c-8 -5 -26 -10 -39 -10 -55 0 -216 -71 -232 -102 -13 -25
8 -58 55 -87 45 -28 49 -52 44 -228 l-4 -136 -47 -41 c-52 -45 -59 -74 -26
-105 28 -26 69 -32 236 -38 111 -3 153 -1 197 12 88 26 114 84 55 126 -55 39
-59 61 -59 354 l0 265 -82 0 c-46 0 -90 -5 -98 -10z"/>
</g>
</svg>
